<?xml version="1.0" encoding="utf-8"?>
<!-- Generator: Adobe Illustrator 23.0.2, SVG Export Plug-In . SVG Version: 6.00 Build 0)  -->
<svg version="1.1" id="Capa_1" xmlns="http://www.w3.org/2000/svg" xmlns:xlink="http://www.w3.org/1999/xlink" x="0px" y="0px"
	 viewBox="0 0 205.59 45.21" style="enable-background:new 0 0 205.59 45.21;" xml:space="preserve">
<style type="text/css">
	.st0{fill:#EEBE2F;}
	.st1{fill:#606060;}
</style>
<rect class="st0" width="205.59" height="45.21"/>
<g>
	<path class="st1" d="M20.3,20.26c0-6.31,0-12.32,8.22-12.32c5.08,0,7.13,2.81,6.93,7.92h-4.89c0-3.17-0.56-4.36-2.05-4.36
		c-2.81,0-3.17,2.64-3.17,8.75c0,6.11,0.36,8.75,3.17,8.75c2.31,0,2.21-2.97,2.28-4.85h4.92c0,6.37-2.54,8.42-7.2,8.42
		C20.3,32.58,20.3,26.5,20.3,20.26z"/>
	<path class="st1" d="M38.66,20.26c0-6.31,0-12.32,8.22-12.32c8.22,0,8.22,6.01,8.22,12.32c0,6.24,0,12.32-8.22,12.32
		C38.66,32.58,38.66,26.5,38.66,20.26z M50.06,20.26c0-6.11-0.36-8.75-3.17-8.75s-3.17,2.64-3.17,8.75c0,6.11,0.36,8.75,3.17,8.75
		S50.06,26.37,50.06,20.26z"/>
	<path class="st1" d="M59.1,32.18V8.34h6.74l6.34,16.51h0.07V8.34h4.66v23.84h-6.57l-6.51-17.44h-0.07v17.44H59.1z"/>
	<path class="st1" d="M95.3,8.34v3.96h-5.55v19.88h-4.99V12.3h-5.55V8.34H95.3z"/>
	<path class="st1" d="M93.81,32.18l6.6-23.84h6.57l6.47,23.84h-5.25l-1.32-5.28h-6.8l-1.35,5.28H93.81z M103.42,12.93h-0.07
		l-2.28,10.3h4.75L103.42,12.93z"/>
	<path class="st1" d="M115.57,20.26c0-6.31,0-12.32,8.22-12.32c5.08,0,7.13,2.81,6.93,7.92h-4.89c0-3.17-0.56-4.36-2.05-4.36
		c-2.81,0-3.17,2.64-3.17,8.75c0,6.11,0.36,8.75,3.17,8.75c2.31,0,2.21-2.97,2.28-4.85h4.92c0,6.37-2.54,8.42-7.2,8.42
		C115.57,32.58,115.57,26.5,115.57,20.26z"/>
	<path class="st1" d="M148.36,8.34v3.96h-5.55v19.88h-4.99V12.3h-5.55V8.34H148.36z"/>
	<path class="st1" d="M150.44,20.26c0-6.31,0-12.32,8.22-12.32c8.22,0,8.22,6.01,8.22,12.32c0,6.24,0,12.32-8.22,12.32
		C150.44,32.58,150.44,26.5,150.44,20.26z M161.84,20.26c0-6.11-0.36-8.75-3.17-8.75c-2.81,0-3.17,2.64-3.17,8.75
		c0,6.11,0.36,8.75,3.17,8.75C161.47,29.01,161.84,26.37,161.84,20.26z"/>
	<path class="st1" d="M177.32,32.58c-6.17,0-7.33-3.63-7.07-7.76h4.99c0,2.28,0.1,4.19,2.84,4.19c1.68,0,2.51-1.09,2.51-2.71
		c0-4.29-10.04-4.56-10.04-11.65c0-3.73,1.78-6.7,7.86-6.7c4.85,0,7.26,2.18,6.93,7.16h-4.85c0-1.78-0.3-3.6-2.31-3.6
		c-1.62,0-2.58,0.89-2.58,2.54c0,4.52,10.04,4.13,10.04,11.62C185.64,31.85,181.12,32.58,177.32,32.58z"/>
</g>
</svg>
