<?xml version="1.0" encoding="utf-8"?>
<!-- Generator: Adobe Illustrator 23.0.2, SVG Export Plug-In . SVG Version: 6.00 Build 0)  -->
<svg version="1.1" id="Capa_1" xmlns="http://www.w3.org/2000/svg" xmlns:xlink="http://www.w3.org/1999/xlink" x="0px" y="0px"
	 viewBox="0 0 33.92 33.91" style="enable-background:new 0 0 33.92 33.91;" xml:space="preserve">
<style type="text/css">
	.st0{fill:#606060;}
</style>
<g>
	<path class="st0" d="M16.96,14.93c0.01,0,0.02,0,0.02,0c1.12,0,2.02,0.91,2.01,2.04C18.99,18.09,18.07,19,16.94,19
		c-1.13-0.01-2.02-0.93-2.01-2.04C14.93,15.83,15.84,14.93,16.96,14.93z"/>
	<path class="st0" d="M33.71,8.51c0.25,2.67,0.41,15.28-0.37,18.23c-1.05,3.87-3.57,6.16-7.49,6.78c-1.46,0.24-5.41,0.38-9.36,0.38
		c-4.04,0-8.07-0.15-9.42-0.5c-3.85-0.99-6.14-3.5-6.75-7.39c-0.45-2.86-0.5-16.15,0.32-19.04c1.08-3.76,3.59-5.96,7.39-6.59
		C9.76,0.1,13.13,0,16.54,0c3.17,0,6.36,0.09,8.28,0.19c2.33,0.12,4.46,0.87,6.19,2.53C32.66,4.3,33.5,6.28,33.71,8.51z
		 M30.45,25.45c0.49-2.98,0.49-13.86,0.21-16.66c-0.3-2.98-2.13-4.94-5.08-5.41c-1.46-0.22-4.98-0.32-8.48-0.32
		c-3.38,0-6.74,0.09-8.22,0.25C5.93,3.66,3.94,5.49,3.47,8.43c-0.49,3.12-0.48,14.78-0.12,17.12c0.38,2.44,1.75,4.11,4.19,4.79
		c1.32,0.37,5.26,0.5,9.12,0.5c3.56,0,7.05-0.11,8.36-0.26C28.01,30.26,29.98,28.42,30.45,25.45"/>
	<path class="st0" d="M17.03,8.27c4.79,0,8.66,3.89,8.62,8.7c-0.04,4.79-3.96,8.69-8.77,8.69c-4.81,0-8.66-3.89-8.62-8.7
		C8.3,12.15,12.23,8.25,17.03,8.27z M16.91,22.58c3.08,0,5.62-2.48,5.67-5.57c0.05-3.12-2.42-5.65-5.53-5.68c-0.02,0-0.03,0-0.05,0
		c-3.08,0-5.62,2.48-5.67,5.57c-0.05,3.1,2.42,5.65,5.53,5.68C16.87,22.58,16.89,22.58,16.91,22.58"/>
</g>
</svg>
