<?xml version="1.0" encoding="utf-8"?>
<!-- Generator: Adobe Illustrator 23.0.2, SVG Export Plug-In . SVG Version: 6.00 Build 0)  -->
<svg version="1.1" id="Capa_1" xmlns="http://www.w3.org/2000/svg" xmlns:xlink="http://www.w3.org/1999/xlink" x="0px" y="0px"
	 viewBox="0 0 601.09 549.62" style="enable-background:new 0 0 601.09 549.62;" xml:space="preserve">
<style type="text/css">
	.st0{fill:#EEBE2F;}
	.st1{fill:#606060;}
	.st2{fill:#FFFFFF;}
	.st3{fill:#DBA728;}
</style>
<g>
	<polygon class="st0" points="567.8,0 452,296.74 544.63,296.74 432.93,549.62 0,549.62 0,0 	"/>
	<g>
		<path class="st1" d="M99.35,185.46v-60.71h12.7v50.62h19v10.09H99.35z"/>
		<path class="st1" d="M136.01,155.1c0-16.06,0-31.37,20.94-31.37c20.94,0,20.94,15.3,20.94,31.37c0,15.89,0,31.37-20.94,31.37
			C136.01,186.47,136.01,171,136.01,155.1z M165.03,155.1c0-15.56-0.93-22.28-8.07-22.28c-7.15,0-8.07,6.73-8.07,22.28
			c0,15.56,0.92,22.28,8.07,22.28C164.1,177.39,165.03,170.66,165.03,155.1z"/>
		<path class="st1" d="M206.39,185.46v-60.71h20.43l9.5,41.29h0.17l10.09-41.29h19.76v60.71h-12.36v-46.84h-0.17l-11.69,46.84
			h-12.11l-11.1-46.84h-0.17v46.84H206.39z"/>
		<path class="st1" d="M272.07,185.46l16.82-60.71h16.73l16.48,60.71h-13.37l-3.36-13.46h-17.32l-3.45,13.46H272.07z M308.81,106.5
			l-13.45,12.03h-5.47l7.57-12.03H308.81z M296.54,136.44h-0.17l-5.8,26.24h12.11L296.54,136.44z"/>
		<path class="st1" d="M344.55,186.47c-15.73,0-18.67-9.25-18-19.76h12.7c0,5.8,0.25,10.68,7.23,10.68c4.29,0,6.39-2.77,6.39-6.9
			c0-10.93-25.56-11.6-25.56-29.68c0-9.5,4.54-17.07,20.01-17.07c12.36,0,18.5,5.55,17.66,18.25h-12.36c0-4.54-0.76-9.17-5.89-9.17
			c-4.12,0-6.56,2.27-6.56,6.48c0,11.52,25.56,10.51,25.56,29.6C365.74,184.62,354.22,186.47,344.55,186.47z"/>
	</g>
	<rect x="83.1" y="194.15" class="st2" width="289.28" height="76.93"/>
	<g>
		<g>
			<path class="st0" d="M93.59,206.94h11.17l7.97,37.35h0.14l8.96-37.35h10.6l-13.59,51.36h-12.59L93.59,206.94z"/>
			<path class="st0" d="M137.26,258.29v-51.36h28.03v7.9H148v12.66h15.93v7.9H148v15.01h17.85v7.9H137.26z"/>
			<path class="st0" d="M172.9,258.29v-51.36h14.51l13.66,35.57h0.14v-35.57h10.03v51.36h-14.16l-14.01-37.56h-0.14v37.56H172.9z"/>
			<path class="st0" d="M220.48,206.94h17.93c14.08,0,16.72,9.39,16.72,25.39c0,7.9,1.21,25.96-17.14,25.96h-17.5V206.94z
				 M231.23,250.4h5.19c6.54,0,7.82-4.91,7.82-17.78c0-9.46,0-17.78-7.47-17.78h-5.55V250.4z"/>
			<path class="st0" d="M263.73,258.29v-51.36h10.74v51.36H263.73z"/>
			<path class="st0" d="M283.72,206.94h17.93c14.08,0,16.72,9.39,16.72,25.39c0,7.9,1.21,25.96-17.14,25.96h-17.5V206.94z
				 M294.46,250.4h5.19c6.54,0,7.83-4.91,7.83-17.78c0-9.46,0-17.78-7.47-17.78h-5.55V250.4z"/>
			<path class="st0" d="M326.47,232.62c0-13.59,0-26.53,17.71-26.53c17.71,0,17.71,12.95,17.71,26.53c0,13.44,0,26.53-17.71,26.53
				C326.47,259.15,326.47,246.06,326.47,232.62z M351.01,232.62c0-13.16-0.78-18.85-6.83-18.85c-6.05,0-6.83,5.69-6.83,18.85
				c0,13.16,0.78,18.85,6.83,18.85C350.23,251.47,351.01,245.78,351.01,232.62z"/>
		</g>
	</g>
	<g>
		<polygon class="st2" points="469.57,549.61 463,549.61 583.93,277.81 490.72,277.81 594.68,0 601.09,0 499.37,271.81 
			593.17,271.81 		"/>
	</g>
	<g>
		<g>
			<path class="st1" d="M61.14,347.95c-1.42,0-2.58-1.15-2.58-2.58v-10.75c0-1.42,1.15-2.58,2.58-2.58c1.42,0,2.58,1.15,2.58,2.58
				v10.75C63.72,346.79,62.56,347.95,61.14,347.95z"/>
			<path class="st1" d="M61.14,367.12c-1.42,0-2.58-1.15-2.58-2.58V353.8c0-1.42,1.15-2.58,2.58-2.58c1.42,0,2.58,1.15,2.58,2.58
				v10.75C63.72,365.97,62.56,367.12,61.14,367.12z"/>
			<path class="st1" d="M76.1,352.16H65.36c-1.42,0-2.58-1.15-2.58-2.58c0-1.42,1.15-2.58,2.58-2.58H76.1
				c1.42,0,2.58,1.15,2.58,2.58C78.68,351.01,77.53,352.16,76.1,352.16z"/>
			<path class="st1" d="M56.93,352.16H46.18c-1.42,0-2.58-1.15-2.58-2.58c0-1.42,1.15-2.58,2.58-2.58h10.75
				c1.42,0,2.58,1.15,2.58,2.58C59.5,351.01,58.35,352.16,56.93,352.16z"/>
		</g>
	</g>
	<g>
		<g>
			<path class="st1" d="M444.32,159.45c-1.42,0-2.58-1.15-2.58-2.58v-10.75c0-1.42,1.15-2.58,2.58-2.58c1.42,0,2.58,1.15,2.58,2.58
				v10.75C446.9,158.3,445.74,159.45,444.32,159.45z"/>
			<path class="st1" d="M444.32,178.63c-1.42,0-2.58-1.15-2.58-2.58v-10.75c0-1.42,1.15-2.58,2.58-2.58c1.42,0,2.58,1.15,2.58,2.58
				v10.75C446.9,177.48,445.74,178.63,444.32,178.63z"/>
			<path class="st1" d="M459.28,163.67h-10.75c-1.42,0-2.58-1.15-2.58-2.58c0-1.42,1.15-2.58,2.58-2.58h10.75
				c1.42,0,2.58,1.15,2.58,2.58C461.86,162.51,460.7,163.67,459.28,163.67z"/>
			<path class="st1" d="M440.11,163.67h-10.75c-1.42,0-2.58-1.15-2.58-2.58c0-1.42,1.15-2.58,2.58-2.58h10.75
				c1.42,0,2.58,1.15,2.58,2.58C442.68,162.51,441.53,163.67,440.11,163.67z"/>
		</g>
	</g>
	<g>
		<g>
			<path class="st1" d="M381.24,488.39c-1.42,0-2.58-1.15-2.58-2.58v-10.75c0-1.42,1.15-2.58,2.58-2.58c1.42,0,2.58,1.15,2.58,2.58
				v10.75C383.81,487.24,382.66,488.39,381.24,488.39z"/>
			<path class="st1" d="M381.24,507.57c-1.42,0-2.58-1.15-2.58-2.58v-10.75c0-1.42,1.15-2.58,2.58-2.58c1.42,0,2.58,1.15,2.58,2.58
				v10.75C383.81,506.41,382.66,507.57,381.24,507.57z"/>
			<path class="st1" d="M396.2,492.61h-10.75c-1.42,0-2.58-1.15-2.58-2.58c0-1.42,1.15-2.58,2.58-2.58h10.75
				c1.42,0,2.58,1.15,2.58,2.58C398.77,491.45,397.62,492.61,396.2,492.61z"/>
			<path class="st1" d="M377.02,492.61h-10.75c-1.42,0-2.58-1.15-2.58-2.58c0-1.42,1.15-2.58,2.58-2.58h10.75
				c1.42,0,2.58,1.15,2.58,2.58C379.6,491.45,378.44,492.61,377.02,492.61z"/>
		</g>
	</g>
	<path class="st2" d="M405.51,332.16h-19.35c-1.78,0-3.37-0.92-4.26-2.46c-0.89-1.54-0.89-3.38,0-4.92l9.68-16.76
		c0.89-1.54,2.48-2.46,4.26-2.46c1.78,0,3.37,0.92,4.26,2.46l9.67,16.76c0.89,1.54,0.89,3.38,0,4.92
		C408.88,331.24,407.29,332.16,405.51,332.16z M387.15,326.67h17.37l-8.68-15.04L387.15,326.67z M393.96,309.4h0.01H393.96z"/>
	<path class="st2" d="M465.65,46.09H446.3c-1.78,0-3.37-0.92-4.26-2.46c-0.89-1.54-0.89-3.38,0-4.92l9.68-16.76
		c0.89-1.54,2.48-2.46,4.26-2.46c1.78,0,3.37,0.92,4.26,2.46l9.67,16.76c0.89,1.54,0.89,3.38,0,4.92
		C469.01,45.17,467.42,46.09,465.65,46.09z M447.29,40.6h17.37l-8.68-15.04L447.29,40.6z M454.09,23.33h0.01H454.09z"/>
	<path class="st2" d="M70.82,59.07H51.47c-1.78,0-3.37-0.92-4.26-2.46c-0.89-1.54-0.89-3.38,0-4.92l9.68-16.76
		c0.89-1.54,2.48-2.46,4.26-2.46c1.78,0,3.37,0.92,4.26,2.46l9.67,16.76c0.89,1.54,0.89,3.38,0,4.92
		C74.19,58.15,72.59,59.07,70.82,59.07z M52.46,53.58h17.37l-8.68-15.04L52.46,53.58z M59.26,36.3h0.01H59.26z"/>
	<path class="st1" d="M262.48,83.84c-5.48,0-9.94-4.46-9.94-9.94c0-5.48,4.46-9.94,9.94-9.94c5.48,0,9.94,4.46,9.94,9.94
		C272.42,79.38,267.96,83.84,262.48,83.84z M262.48,69.11c-2.64,0-4.79,2.15-4.79,4.79s2.15,4.79,4.79,4.79s4.79-2.15,4.79-4.79
		S265.12,69.11,262.48,69.11z"/>
	<path class="st1" d="M58.57,527.44c-5.48,0-9.94-4.46-9.94-9.94c0-5.48,4.46-9.94,9.94-9.94c5.48,0,9.94,4.46,9.94,9.94
		C68.5,522.98,64.05,527.44,58.57,527.44z M58.57,512.72c-2.64,0-4.79,2.15-4.79,4.79s2.15,4.79,4.79,4.79s4.79-2.15,4.79-4.79
		S61.2,512.72,58.57,512.72z"/>
	<g>
		<polygon class="st3" points="432.78,549.62 419.65,549.62 526.03,309.61 434.15,309.61 554.92,0 567.8,0 451.71,297.61 
			544.48,297.61 		"/>
	</g>
	<rect x="325.48" y="437.35" class="st2" width="48.04" height="6.3"/>
	<rect x="85.23" y="437.35" class="st2" width="48.04" height="6.3"/>
	<circle class="st2" cx="227.74" cy="439.75" r="71.51"/>
	<g>
		<path class="st1" d="M299.98,408.19c-0.6-0.66-1.27-1.26-1.99-1.79l0.56-6.85c0.53-5.99-3.22-11.53-8.97-13.28
			c-15.71-4.83-44.64-12.93-61.84-12.93c-17.85,0-49.2,9.05-61.85,12.94c-5.75,1.75-9.5,7.29-8.96,13.28l0.56,6.86
			c-3.69,2.66-5.69,7.09-5.23,11.62l6.54,65.38c0.13,1.31,1.23,2.3,2.54,2.3h2.55v17.88c0,1.41,1.14,2.55,2.55,2.55h5.11
			c1.17,0,2.19-0.8,2.48-1.93l4.63-18.5h98.18l4.62,18.5c0.28,1.14,1.31,1.93,2.48,1.93h5.11c1.41,0,2.55-1.14,2.55-2.55v-17.88
			h2.55c1.32,0.01,2.42-0.99,2.55-2.3l6.54-65.38C303.59,414.45,302.41,410.87,299.98,408.19z M162.01,399.14
			c-0.32-3.59,1.93-6.92,5.38-7.97c12.43-3.83,43.19-12.72,60.34-12.72s47.91,8.89,60.34,12.71c3.46,1.05,5.71,4.38,5.39,7.98
			l-0.42,5.11c-0.83-0.17-1.68-0.25-2.52-0.26h-0.38c-9.19-0.03-16.9,6.94-17.79,16.09l-1.44,14.34c-2.4-3.07-6.07-4.87-9.96-4.89
			h-66.41c-3.89,0.02-7.57,1.82-9.96,4.89l-1.44-14.34c-0.9-9.15-8.6-16.12-17.79-16.09h-0.38c-0.85,0-1.69,0.09-2.53,0.26
			L162.01,399.14z M268.6,449.97h-81.73v-7.66c0-4.23,3.43-7.66,7.66-7.66h66.41c4.23,0,7.66,3.43,7.66,7.66V449.97z M268.84,455.07
			l-2.55,25.54h-77.11l-2.55-25.54H268.84z M169.55,501.05h-0.56v-15.32h4.39L169.55,501.05z M163.64,480.61l-6.31-63.09
			c-0.42-4.21,2.65-7.97,6.86-8.39c0.25-0.03,0.51-0.04,0.77-0.04h0.38c6.57-0.02,12.07,4.96,12.71,11.49l6.01,60.02H163.64z
			 M286.48,501.05h-0.56l-3.83-15.32h4.39V501.05z M291.84,480.61h-20.41l6-60.02c0.64-6.53,6.13-11.5,12.69-11.49h0.38
			c4.23,0,7.66,3.43,7.66,7.66c0,0.26-0.01,0.51-0.04,0.77L291.84,480.61z"/>
		<rect x="207.3" y="396.33" class="st1" width="5.11" height="5.11"/>
		<rect x="207.3" y="411.65" class="st1" width="5.11" height="5.11"/>
		<rect x="243.06" y="396.33" class="st1" width="5.11" height="5.11"/>
		<rect x="243.06" y="411.65" class="st1" width="5.11" height="5.11"/>
	</g>
</g>
</svg>
