<?xml version="1.0" encoding="utf-8"?>
<!-- Generator: Adobe Illustrator 23.0.2, SVG Export Plug-In . SVG Version: 6.00 Build 0)  -->
<svg version="1.1" id="Capa_1" xmlns="http://www.w3.org/2000/svg" xmlns:xlink="http://www.w3.org/1999/xlink" x="0px" y="0px"
	 viewBox="0 0 485.27 548.98" style="enable-background:new 0 0 485.27 548.98;" xml:space="preserve">
<style type="text/css">
	.st0{fill:#EEBE2F;}
	.st1{fill:#DBA728;}
	.st2{fill:#606060;}
	.st3{fill:#FFFFFF;}
</style>
<g>
	<rect x="38.44" class="st0" width="446.83" height="548.98"/>
	<path class="st1" d="M0,548.98h485.27V322.8H209.15C93.64,322.8,0,416.44,0,531.95L0,548.98z"/>
	<g>
		<g>
			<path class="st2" d="M127.64,76.18h12.17c9.57,0,11.35,6.38,11.35,17.25c0,5.36,0.82,17.63-11.64,17.63h-11.88V76.18z
				 M134.94,105.7h3.53c4.44,0,5.31-3.33,5.31-12.08c0-6.43,0-12.08-5.07-12.08h-3.77V105.7z"/>
			<path class="st2" d="M157.02,111.06V76.18h19.03v5.36h-11.74v8.6h10.82v5.36h-10.82v10.19h12.12v5.36H157.02z"/>
			<path class="st2" d="M190.64,111.64c-9.03,0-10.72-5.31-10.34-11.35h7.29c0,3.33,0.14,6.14,4.15,6.14c2.46,0,3.67-1.59,3.67-3.96
				c0-6.28-14.69-6.67-14.69-17.05c0-5.46,2.61-9.81,11.5-9.81c7.1,0,10.63,3.19,10.14,10.48h-7.1c0-2.61-0.43-5.27-3.38-5.27
				c-2.37,0-3.77,1.3-3.77,3.72c0,6.62,14.69,6.04,14.69,17C202.81,110.57,196.19,111.64,190.64,111.64z"/>
			<path class="st2" d="M207.69,93.62c0-9.23,0-18.02,12.03-18.02c7.44,0,10.43,4.11,10.14,11.59h-7.15c0-4.64-0.82-6.38-3-6.38
				c-4.11,0-4.64,3.87-4.64,12.8s0.53,12.8,4.64,12.8c3.38,0,3.24-4.35,3.33-7.1h7.2c0,9.32-3.72,12.32-10.53,12.32
				C207.69,111.64,207.69,102.75,207.69,93.62z"/>
			<path class="st2" d="M258.46,76.18v24.73c0,5.22-2.95,10.73-11.84,10.73c-8.02,0-11.88-4.15-11.88-10.73V76.18h7.29v24.25
				c0,4.3,1.83,5.99,4.49,5.99c3.19,0,4.64-2.13,4.64-5.99V76.18H258.46z"/>
			<path class="st2" d="M264.4,111.06V76.18h19.03v5.36H271.7v8.6h10.82v5.36H271.7v10.19h12.12v5.36H264.4z"/>
			<path class="st2" d="M288.61,111.06V76.18h9.86l9.28,24.16h0.1V76.18h6.81v34.88h-9.61l-9.52-25.51h-0.1v25.51H288.61z"/>
			<path class="st2" d="M341.55,76.18v5.8h-8.12v29.08h-7.29V81.98h-8.12v-5.8H341.55z"/>
			<path class="st2" d="M344.6,93.62c0-9.23,0-18.02,12.03-18.02c12.03,0,12.03,8.79,12.03,18.02c0,9.13,0,18.02-12.03,18.02
				C344.6,111.64,344.6,102.75,344.6,93.62z M361.26,93.62c0-8.94-0.53-12.8-4.64-12.8s-4.64,3.87-4.64,12.8s0.53,12.8,4.64,12.8
				S361.26,102.55,361.26,93.62z"/>
			<path class="st2" d="M383.92,111.64c-9.03,0-10.72-5.31-10.34-11.35h7.29c0,3.33,0.14,6.14,4.15,6.14c2.46,0,3.67-1.59,3.67-3.96
				c0-6.28-14.69-6.67-14.69-17.05c0-5.46,2.61-9.81,11.5-9.81c7.1,0,10.63,3.19,10.14,10.48h-7.1c0-2.61-0.43-5.27-3.38-5.27
				c-2.37,0-3.77,1.3-3.77,3.72c0,6.62,14.69,6.04,14.69,17C396.09,110.57,389.47,111.64,383.92,111.64z"/>
		</g>
		<g>
			<path class="st2" d="M320.55,223.77l-6.29-15.71h5.49l3.6,10.15l3.83-10.15h5.13l-6.73,15.71v8.32h-5.03V223.77z"/>
			<path class="st2" d="M341.93,232.09v-24.04h8.09l3.76,16.35h0.07l4-16.35h7.82v24.04h-4.89v-18.54h-0.07l-4.63,18.54h-4.79
				l-4.4-18.54h-0.07v18.54H341.93z"/>
			<path class="st2" d="M367.94,232.09l6.66-24.04h6.63l6.53,24.04h-5.29l-1.33-5.33h-6.86l-1.37,5.33H367.94z M382.49,200.83
				l-5.33,4.76h-2.16l3-4.76H382.49z M377.63,212.68h-0.07l-2.3,10.39h4.79L377.63,212.68z"/>
			<path class="st2" d="M396.64,232.49c-6.23,0-7.39-3.66-7.12-7.82h5.03c0,2.3,0.1,4.23,2.86,4.23c1.7,0,2.53-1.1,2.53-2.73
				c0-4.33-10.12-4.59-10.12-11.75c0-3.76,1.8-6.76,7.92-6.76c4.89,0,7.33,2.2,6.99,7.23h-4.89c0-1.8-0.3-3.63-2.33-3.63
				c-1.63,0-2.6,0.9-2.6,2.56c0,4.56,10.12,4.16,10.12,11.72C405.03,231.76,400.47,232.49,396.64,232.49z"/>
		</g>
		<rect x="117.17" y="118.04" class="st3" width="288.73" height="79.13"/>
		<g>
			<g>
				<path class="st0" d="M133.43,157.83c0-13.23,0-25.83,17.24-25.83c17.24,0,17.24,12.6,17.24,25.83c0,13.09,0,25.83-17.24,25.83
					C133.43,183.66,133.43,170.92,133.43,157.83z M157.32,157.83c0-12.81-0.76-18.35-6.65-18.35s-6.65,5.54-6.65,18.35
					c0,12.81,0.76,18.35,6.65,18.35S157.32,170.64,157.32,157.83z"/>
				<path class="st0" d="M176.02,182.83v-49.99h25.97v7.69h-15.51v12.81h14.82v7.69h-14.82v21.81H176.02z"/>
				<path class="st0" d="M206.97,182.83v-49.99h27.28v7.69h-16.83v12.33h15.51v7.69h-15.51v14.61h17.38v7.69H206.97z"/>
				<path class="st0" d="M251.85,182.83h-10.46v-49.99h19.32c7.13,0,11.7,4.57,11.7,13.09c0,6.37-2.49,11.15-9.28,12.26v0.14
					c2.29,0.28,9.07,0.83,9.07,9.83c0,3.19,0.21,12.6,1.18,14.68h-10.25c-1.38-3.05-1.11-6.44-1.11-9.69
					c0-5.96,0.55-11.01-7.48-11.01h-2.7V182.83z M251.85,154.44h4.64c4.15,0,5.33-4.15,5.33-7.34c0-4.78-2.01-6.58-5.33-6.58h-4.64
					V154.44z"/>
				<path class="st0" d="M309.88,132.84v8.31h-11.63v41.69h-10.46v-41.69h-11.63v-8.31H309.88z"/>
				<path class="st0" d="M306.77,182.83l13.85-49.99h13.78l13.57,49.99h-11.01l-2.77-11.08h-14.26l-2.84,11.08H306.77z
					 M326.91,142.46h-0.14l-4.78,21.6h9.97L326.91,142.46z"/>
				<path class="st0" d="M366.46,183.66c-12.95,0-15.37-7.62-14.82-16.27h10.46c0,4.78,0.21,8.79,5.96,8.79
					c3.53,0,5.26-2.29,5.26-5.68c0-9-21.05-9.56-21.05-24.44c0-7.82,3.74-14.06,16.48-14.06c10.18,0,15.23,4.57,14.54,15.03H373.1
					c0-3.74-0.62-7.55-4.85-7.55c-3.39,0-5.4,1.87-5.4,5.33c0,9.49,21.05,8.66,21.05,24.37
					C383.91,182.14,374.42,183.66,366.46,183.66z"/>
			</g>
		</g>
	</g>
	<g>
		<circle class="st3" cx="156.46" cy="447.53" r="33.72"/>
		<circle class="st3" cx="268.09" cy="447.53" r="33.72"/>
		<circle class="st3" cx="383.27" cy="447.53" r="33.72"/>
		<g>
			<g>
				<path class="st2" d="M186.02,436.71c-0.25-0.27-0.52-0.52-0.82-0.73l0.23-2.8c0.22-2.45-1.32-4.72-3.67-5.43
					c-6.43-1.98-18.26-5.29-25.3-5.29c-7.3,0-20.13,3.7-25.31,5.29c-2.35,0.72-3.88,2.98-3.67,5.43l0.23,2.8
					c-1.51,1.09-2.33,2.9-2.14,4.76l2.68,26.75c0.05,0.53,0.5,0.94,1.04,0.94h1.04v7.31c0,0.58,0.47,1.04,1.04,1.04h2.09
					c0.48,0,0.9-0.33,1.01-0.79l1.89-7.57h40.17l1.89,7.57c0.12,0.46,0.53,0.79,1.01,0.79h2.09c0.58,0,1.04-0.47,1.04-1.04v-7.31
					h1.04c0.54,0,0.99-0.4,1.04-0.94l2.68-26.75C187.5,439.27,187.01,437.8,186.02,436.71z M129.57,433
					c-0.13-1.47,0.79-2.83,2.2-3.26c5.08-1.57,17.67-5.2,24.69-5.2c7.02,0,19.6,3.64,24.69,5.2c1.41,0.43,2.34,1.79,2.2,3.26
					l-0.17,2.09c-0.34-0.07-0.69-0.1-1.03-0.1h-0.16c-3.76-0.01-6.91,2.84-7.28,6.58l-0.59,5.87c-0.98-1.26-2.48-1.99-4.08-2h-27.17
					c-1.59,0.01-3.1,0.74-4.08,2l-0.59-5.87c-0.37-3.74-3.52-6.59-7.28-6.58h-0.16c-0.35,0-0.69,0.04-1.03,0.1L129.57,433z
					 M173.18,453.8h-33.44v-3.13c0-1.73,1.4-3.13,3.13-3.13h27.17c1.73,0,3.13,1.4,3.13,3.13V453.8z M173.28,455.89l-1.04,10.45
					h-31.55l-1.04-10.45H173.28z M132.66,474.7h-0.23v-6.27h1.8L132.66,474.7z M130.24,466.34l-2.58-25.81
					c-0.17-1.72,1.08-3.26,2.81-3.43c0.1-0.01,0.21-0.02,0.31-0.02h0.16c2.69-0.01,4.94,2.03,5.2,4.7l2.46,24.56H130.24z
					 M180.5,474.7h-0.23l-1.57-6.27h1.8V474.7z M182.69,466.34h-8.35l2.46-24.56c0.26-2.67,2.51-4.71,5.19-4.7h0.16
					c1.73,0,3.13,1.4,3.13,3.13c0,0.1-0.01,0.21-0.02,0.31L182.69,466.34z"/>
				<rect x="148.1" y="431.85" class="st2" width="2.09" height="2.09"/>
				<rect x="148.1" y="438.12" class="st2" width="2.09" height="2.09"/>
				<rect x="162.73" y="431.85" class="st2" width="2.09" height="2.09"/>
				<rect x="162.73" y="438.12" class="st2" width="2.09" height="2.09"/>
			</g>
		</g>
		<g>
			<path class="st2" d="M296.04,451.95v-14.44c0-0.56-0.45-1.01-1.01-1.01c-3.34,0-6.05-2.71-6.05-6.05c0-0.56-0.45-1.01-1.01-1.01
				h-1.05c-3.09-0.05-5.95-1.62-7.65-4.19c-1.7-2.43-4.48-3.88-7.45-3.88h-6.05c-2.97,0-5.74,1.45-7.45,3.88
				c-1.7,2.57-4.56,4.14-7.65,4.19h-1.05c-0.56,0-1.01,0.45-1.01,1.01c0,3.34-2.71,6.05-6.05,6.05c-0.56,0-1.01,0.45-1.01,1.01
				v14.44c-1.92,1.72-3.03,4.17-3.03,6.75v12.11c0,0.56,0.45,1.01,1.01,1.01h2.02v5.05c0,0.56,0.45,1.01,1.01,1.01h3.03
				c0.49,0,0.91-0.36,0.99-0.84l0.87-5.21h42.69l0.87,5.21c0.08,0.49,0.5,0.84,0.99,0.84h3.03c0.56,0,1.01-0.45,1.01-1.01v-5.05
				h2.02c0.56,0,1.01-0.45,1.01-1.01V458.7C299.06,456.12,297.96,453.67,296.04,451.95z M243.57,438.46c3.66-0.47,6.53-3.35,7-7h0.1
				c3.74-0.05,7.23-1.94,9.3-5.05c1.32-1.89,3.49-3.02,5.79-3.02h6.05c2.31,0,4.47,1.13,5.79,3.02c2.08,3.12,5.56,5.01,9.3,5.05h0.1
				c0.47,3.66,3.35,6.53,7,7v12.12c-0.64-0.32-1.32-0.56-2.02-0.72v-9.06c0-0.41-0.25-0.79-0.64-0.94c-2.69-1.06-4.8-3.21-5.8-5.92
				c-0.12-0.34-0.42-0.58-0.77-0.64c-3.58-0.67-6.76-2.73-8.83-5.73c-0.95-1.35-2.49-2.15-4.14-2.16h-6.05
				c-1.65,0-3.19,0.81-4.14,2.16c-2.07,3-5.25,5.06-8.83,5.73c-0.35,0.06-0.65,0.31-0.77,0.64c-1,2.71-3.11,4.86-5.8,5.92
				c-0.39,0.15-0.64,0.52-0.64,0.94v9.06c-0.7,0.16-1.38,0.4-2.02,0.72V438.46z M273.84,448.61v-4.04c0-0.56,0.45-1.01,1.01-1.01
				h8.07c0.56,0,1.01,0.45,1.01,1.01v4.04c0,0.56-0.45,1.01-1.01,1.01h-8.07C274.29,449.62,273.84,449.17,273.84,448.61z
				 M282.92,441.55h-8.07c-1.67,0-3.03,1.36-3.03,3.03v4.04c0,0.34,0.07,0.69,0.19,1.01h-6.43c0.12-0.32,0.18-0.66,0.19-1.01v-4.04
				c0-1.67-1.36-3.03-3.03-3.03h-8.07c-1.67,0-3.03,1.36-3.03,3.03v4.04c0,0.34,0.07,0.69,0.19,1.01h-4.22v-8.16
				c2.74-1.27,4.92-3.51,6.1-6.29c3.89-0.87,7.31-3.18,9.58-6.45c0.57-0.81,1.49-1.29,2.48-1.3h6.05c0.99,0,1.92,0.48,2.48,1.3
				c2.27,3.28,5.69,5.58,9.58,6.45c1.18,2.78,3.36,5.02,6.1,6.29v8.16h-4.22c0.12-0.32,0.18-0.66,0.19-1.01v-4.04
				C285.95,442.9,284.59,441.55,282.92,441.55z M253.66,448.61v-4.04c0-0.56,0.45-1.01,1.01-1.01h8.07c0.56,0,1.01,0.45,1.01,1.01
				v4.04c0,0.56-0.45,1.01-1.01,1.01h-8.07C254.11,449.62,253.66,449.17,253.66,448.61z M247.6,451.64h42.38
				c3.51,0,6.49,2.58,6.99,6.05h-56.36C241.12,454.22,244.09,451.64,247.6,451.64z M244.73,475.85h-1.16v-4.04h1.84L244.73,475.85z
				 M294.02,475.85h-1.16l-0.67-4.04h1.84V475.85z M297.05,469.8h-56.51v-10.09h56.51V469.8z"/>
			<polygon class="st2" points="269.8,430.45 267.78,430.45 267.78,431.46 266.78,431.46 266.78,433.47 267.78,433.47 
				267.78,434.48 269.8,434.48 269.8,433.47 270.81,433.47 270.81,431.46 269.8,431.46 			"/>
			<polygon class="st2" points="269.8,438.52 267.78,438.52 267.78,439.53 266.78,439.53 266.78,441.55 267.78,441.55 
				267.78,442.55 269.8,442.55 269.8,441.55 270.81,441.55 270.81,439.53 269.8,439.53 			"/>
			<polygon class="st2" points="279.89,435.49 277.88,435.49 277.88,436.5 276.87,436.5 276.87,438.52 277.88,438.52 277.88,439.53 
				279.89,439.53 279.89,438.52 280.9,438.52 280.9,436.5 279.89,436.5 			"/>
			<polygon class="st2" points="259.71,435.49 257.69,435.49 257.69,436.5 256.69,436.5 256.69,438.52 257.69,438.52 257.69,439.53 
				259.71,439.53 259.71,438.52 260.72,438.52 260.72,436.5 259.71,436.5 			"/>
		</g>
		<path class="st2" d="M403.03,430.46c-0.51-5.33-5.01-9.51-10.47-9.51c-4.16,0-7.75,2.43-9.46,5.95c-1.71-3.51-5.3-5.95-9.46-5.95
			c-5.45,0-9.95,4.18-10.47,9.51c-4.68,0.48-8.41,4.19-8.91,8.86h-0.04v1.06v1.06v2.99h4c0.51,2.84,2.99,5.01,5.97,5.01
			s5.46-2.16,5.97-5.01h4v-2.99v-1.06v-1.06h-0.05c-0.49-4.64-4.17-8.32-8.78-8.85c0.5-4.16,4.04-7.39,8.33-7.39
			c4.64,0,8.4,3.77,8.4,8.4v44.68h-3.41v2.12h8.94v-2.12h-3.41v-44.69c0-4.64,3.77-8.4,8.4-8.4c4.3,0,7.84,3.25,8.34,7.4
			c-4.63,0.52-8.3,4.21-8.78,8.85h-0.05v1.06v1.06v2.99h4.16c0.51,2.84,2.99,5.01,5.97,5.01c2.98,0,5.47-2.16,5.97-5.01h4.16v-5.11
			h-0.38C411.44,434.65,407.7,430.93,403.03,430.46z M364.18,447.32c-1.8,0-3.32-1.23-3.79-2.89h7.57
			C367.5,446.09,365.99,447.32,364.18,447.32z M372.04,442.31h-15.71v-0.87h15.7v0.87H372.04z M371.97,439.31H356.4
			c0.52-3.83,3.81-6.79,7.78-6.79C368.16,432.52,371.45,435.48,371.97,439.31z M402.18,447.32c-1.8,0-3.32-1.23-3.79-2.89h7.57
			C405.5,446.09,403.99,447.32,402.18,447.32z M410.2,442.31h-16.03v-0.87h16.03V442.31z M394.24,439.32
			c0.52-3.83,3.81-6.79,7.78-6.79c3.97,0,7.26,2.96,7.78,6.79H394.24z"/>
	</g>
	<g>
		<g>
			<path class="st2" d="M112.39,306.49c-1.42,0-2.58-1.15-2.58-2.58v-10.75c0-1.42,1.15-2.58,2.58-2.58c1.42,0,2.58,1.15,2.58,2.58
				v10.75C114.96,305.33,113.81,306.49,112.39,306.49z"/>
			<path class="st2" d="M112.39,325.66c-1.42,0-2.58-1.15-2.58-2.58v-10.75c0-1.42,1.15-2.58,2.58-2.58c1.42,0,2.58,1.15,2.58,2.58
				v10.75C114.96,324.51,113.81,325.66,112.39,325.66z"/>
			<path class="st2" d="M127.35,310.7H116.6c-1.42,0-2.58-1.15-2.58-2.58c0-1.42,1.15-2.58,2.58-2.58h10.75
				c1.42,0,2.58,1.15,2.58,2.58C129.93,309.55,128.77,310.7,127.35,310.7z"/>
			<path class="st2" d="M108.17,310.7H97.43c-1.42,0-2.58-1.15-2.58-2.58c0-1.42,1.15-2.58,2.58-2.58h10.75
				c1.42,0,2.58,1.15,2.58,2.58C110.75,309.55,109.6,310.7,108.17,310.7z"/>
		</g>
	</g>
	<g>
		<g>
			<path class="st2" d="M67.99,511.25c-1.42,0-2.58-1.15-2.58-2.58v-10.75c0-1.42,1.15-2.58,2.58-2.58c1.42,0,2.58,1.15,2.58,2.58
				v10.75C70.57,510.1,69.41,511.25,67.99,511.25z"/>
			<path class="st2" d="M67.99,530.43c-1.42,0-2.58-1.15-2.58-2.58v-10.75c0-1.42,1.15-2.58,2.58-2.58c1.42,0,2.58,1.15,2.58,2.58
				v10.75C70.57,529.28,69.41,530.43,67.99,530.43z"/>
			<path class="st2" d="M82.95,515.47H72.21c-1.42,0-2.58-1.15-2.58-2.58c0-1.42,1.15-2.58,2.58-2.58h10.75
				c1.42,0,2.58,1.15,2.58,2.58C85.53,514.32,84.38,515.47,82.95,515.47z"/>
			<path class="st2" d="M63.78,515.47H53.03c-1.42,0-2.58-1.15-2.58-2.58c0-1.42,1.15-2.58,2.58-2.58h10.75
				c1.42,0,2.58,1.15,2.58,2.58C66.35,514.32,65.2,515.47,63.78,515.47z"/>
		</g>
	</g>
	<path class="st3" d="M455.3,92.89h-19.35c-1.78,0-3.37-0.92-4.26-2.46c-0.89-1.54-0.89-3.38,0-4.92l9.68-16.76
		c0.89-1.54,2.48-2.46,4.26-2.46c1.78,0,3.37,0.92,4.26,2.46l9.67,16.76c0.89,1.54,0.89,3.38,0,4.92
		C458.67,91.97,457.08,92.89,455.3,92.89z M436.94,87.4h17.37l-8.68-15.04L436.94,87.4z M443.74,70.13h0.01H443.74z"/>
	<path class="st3" d="M455.3,518.38h-19.35c-1.78,0-3.37-0.92-4.26-2.46c-0.89-1.54-0.89-3.38,0-4.92l9.68-16.76
		c0.89-1.54,2.48-2.46,4.26-2.46c1.78,0,3.37,0.92,4.26,2.46l9.67,16.76c0.89,1.54,0.89,3.38,0,4.92
		C458.67,517.46,457.08,518.38,455.3,518.38z M436.94,512.89h17.37l-8.68-15.04L436.94,512.89z M443.74,495.62h0.01H443.74z"/>
	<path class="st3" d="M91.4,75.76H72.05c-1.78,0-3.37-0.92-4.26-2.46c-0.89-1.54-0.89-3.38,0-4.92l9.68-16.76
		c0.89-1.54,2.48-2.46,4.26-2.46c1.78,0,3.37,0.92,4.26,2.46l9.67,16.76c0.89,1.54,0.89,3.38,0,4.92
		C94.77,74.84,93.18,75.76,91.4,75.76z M73.04,70.27h17.37l-8.68-15.04L73.04,70.27z M79.85,53h0.01H79.85z"/>
	<path class="st2" d="M289.98,44.86c-5.48,0-9.94-4.46-9.94-9.94c0-5.48,4.46-9.94,9.94-9.94c5.48,0,9.94,4.46,9.94,9.94
		C299.92,40.4,295.46,44.86,289.98,44.86z M289.98,30.13c-2.64,0-4.79,2.15-4.79,4.79s2.15,4.79,4.79,4.79s4.79-2.15,4.79-4.79
		S292.62,30.13,289.98,30.13z"/>
	<path class="st2" d="M330.73,366.34c-5.48,0-9.94-4.46-9.94-9.94c0-5.48,4.46-9.94,9.94-9.94c5.48,0,9.94,4.46,9.94,9.94
		C340.67,361.88,336.21,366.34,330.73,366.34z M330.73,351.62c-2.64,0-4.79,2.15-4.79,4.79s2.15,4.79,4.79,4.79s4.79-2.15,4.79-4.79
		S333.37,351.62,330.73,351.62z"/>
</g>
</svg>
