<?xml version="1.0" encoding="utf-8"?>
<!-- Generator: Adobe Illustrator 23.0.2, SVG Export Plug-In . SVG Version: 6.00 Build 0)  -->
<svg version="1.1" id="Capa_1" xmlns="http://www.w3.org/2000/svg" xmlns:xlink="http://www.w3.org/1999/xlink" x="0px" y="0px"
	 viewBox="0 0 1024 548.41" style="enable-background:new 0 0 1024 548.41;" xml:space="preserve">
<style type="text/css">
	.st0{fill:#EEBE2F;}
	.st1{fill:#FFFFFF;}
	.st2{fill:#606060;}
	.st3{fill:#272425;}
</style>
<rect class="st0" width="1024" height="548.41"/>
<rect x="95.17" y="265.58" class="st1" width="377.55" height="143.63"/>
<g>
	<g>
		<path class="st0" d="M137.83,395.05v-20.61c36.86-49.1,44.57-54.79,44.57-69.37c0-5.87-2.18-11.39-8.88-11.39
			c-9.72,0-10.22,9.22-10.22,16.76h-23.63c-1.67-21.78,10.56-33.85,32.17-33.85c20.28,0,34.18,8.21,34.18,30.16
			c0,26.31-30.66,56.13-43.4,70.21h44.57v18.1H137.83z"/>
		<path class="st0" d="M281.26,336.24c0,36.7-2.35,60.32-33.85,60.32c-31.5,0-33.85-23.63-33.85-60.32
			c0-44.74,5.03-59.65,33.85-59.65S281.26,291.5,281.26,336.24z M237.2,336.57c0,35.36,0.84,42.9,10.22,42.9
			c9.38,0,10.22-7.54,10.22-42.9c0-36.03-0.17-42.9-10.22-42.9C237.36,293.68,237.2,300.55,237.2,336.57z"/>
		<path class="st0" d="M286.63,395.05v-20.61c36.86-49.1,44.57-54.79,44.57-69.37c0-5.87-2.18-11.39-8.88-11.39
			c-9.72,0-10.22,9.22-10.22,16.76h-23.63c-1.67-21.78,10.56-33.85,32.17-33.85c20.27,0,34.18,8.21,34.18,30.16
			c0,26.31-30.66,56.13-43.4,70.21H356v18.1H286.63z"/>
		<path class="st0" d="M430.06,336.24c0,36.7-2.35,60.32-33.85,60.32c-31.5,0-33.85-23.63-33.85-60.32
			c0-44.74,5.03-59.65,33.85-59.65C425.04,276.58,430.06,291.5,430.06,336.24z M385.99,336.57c0,35.36,0.84,42.9,10.22,42.9
			c9.38,0,10.22-7.54,10.22-42.9c0-36.03-0.17-42.9-10.22-42.9C386.16,293.68,385.99,300.55,385.99,336.57z"/>
	</g>
</g>
<g>
	<g>
		<path class="st2" d="M123.66,199.88v8.57h-11.99v42.98h-10.78v-42.98H88.89v-8.57H123.66z"/>
		<path class="st2" d="M128.66,251.42v-51.55h28.13v7.92h-17.35v12.71h15.99v7.93h-15.99v15.06h17.92v7.92H128.66z"/>
		<path class="st2" d="M164.15,251.42v-51.55h17.35l8.07,35.05h0.14l8.57-35.05h16.78v51.55h-10.5v-39.77h-0.14l-9.92,39.77h-10.28
			l-9.42-39.77h-0.14v39.77H164.15z"/>
		<path class="st2" d="M223.91,199.88h19.42c9.85,0,13.71,6,13.71,15.42c0,5.85-1.71,15.14-14.35,15.14h-8v20.99h-10.78V199.88z
			 M234.69,222.51h6c3.21,0,5.43-3.5,5.43-6.92c0-4.21-1.14-7.78-6-7.78h-5.43V222.51z"/>
		<path class="st2" d="M263.04,225.65c0-13.64,0-26.63,17.78-26.63c17.78,0,17.78,12.99,17.78,26.63c0,13.49,0,26.63-17.78,26.63
			C263.04,252.28,263.04,239.14,263.04,225.65z M287.67,225.65c0-13.21-0.79-18.92-6.85-18.92c-6.07,0-6.85,5.71-6.85,18.92
			c0,13.21,0.79,18.92,6.85,18.92C286.88,244.57,287.67,238.86,287.67,225.65z"/>
		<path class="st2" d="M317.73,251.42h-10.78v-51.55h19.92c7.35,0,12.07,4.71,12.07,13.49c0,6.57-2.57,11.5-9.57,12.64v0.14
			c2.36,0.29,9.35,0.86,9.35,10.14c0,3.28,0.21,12.99,1.21,15.14h-10.57c-1.43-3.14-1.14-6.64-1.14-10c0-6.14,0.57-11.35-7.71-11.35
			h-2.78V251.42z M317.73,222.15h4.78c4.28,0,5.5-4.28,5.5-7.57c0-4.93-2.07-6.78-5.5-6.78h-4.78V222.15z"/>
		<path class="st2" d="M342.93,251.42l14.28-51.55h14.21l13.99,51.55h-11.35L371.21,240H356.5l-2.93,11.42H342.93z M363.71,209.8
			h-0.14l-4.93,22.28h10.28L363.71,209.8z"/>
		<path class="st2" d="M390.7,199.88h17.99c14.14,0,16.78,9.42,16.78,25.49c0,7.92,1.21,26.06-17.21,26.06H390.7V199.88z
			 M401.48,243.5h5.21c6.57,0,7.85-4.93,7.85-17.85c0-9.5,0-17.85-7.5-17.85h-5.57V243.5z"/>
		<path class="st2" d="M430.18,251.42l14.28-51.55h14.21l13.99,51.55h-11.35L458.45,240h-14.71l-2.93,11.42H430.18z M450.96,209.8
			h-0.14l-4.93,22.28h10.28L450.96,209.8z"/>
	</g>
</g>
<g>
	<path class="st1" d="M327.9,131.18l-31.75-50.63c-1.15-1.84-3.69-2.19-5.3-0.74l-57.92,52.27c-1.56,1.41-1.87,3.75-0.73,5.52
		c0.39,0.61,0.84,1.3,1.31,2.03c-1.86,1.6-4.81,4.57-3.62,6.47c1.7,2.71,7.8,15.85,12.26,12.99c0.62-0.4,1.7-0.94,2.81-1.45
		c2.32,2.85,4.11,3.63,5.82,3.12c1.13,7.29,22.8,20.59,26.57,21.78c3.77,1.19,7.89-1.38,4-4.84c-4.29-2.8-9.7-12.05-12.1-16.44
		c-0.68-1.24-0.11-2.8,1.21-3.31l55.76-21.65C328.25,135.5,329.06,133.04,327.9,131.18z"/>
	<path class="st2" d="M287.43,102.08c-2.35,0-4.26-1.91-4.26-4.26c0-2.35,1.91-4.26,4.26-4.26c2.35,0,4.26,1.91,4.26,4.26
		C291.69,100.17,289.78,102.08,287.43,102.08z M287.43,95.07c-1.52,0-2.75,1.23-2.75,2.75c0,1.52,1.23,2.75,2.75,2.75
		c1.52,0,2.75-1.23,2.75-2.75C290.18,96.31,288.94,95.07,287.43,95.07z"/>
	<path class="st2" d="M248.34,163.01c-1.59,0-3.13-0.8-4.01-2.21l-16.57-26.42c-1.18-1.88-0.87-4.37,0.73-5.91l0.03-0.03
		l53.66-48.53c1.03-0.98,2.42-1.43,3.83-1.26c1.41,0.17,2.66,0.97,3.42,2.18l29.96,47.77c0.76,1.21,0.93,2.67,0.47,4.02
		c-0.46,1.34-1.48,2.4-2.8,2.9l-67.09,27.19C249.44,162.91,248.89,163.01,248.34,163.01z M230.58,130.67
		c-0.56,0.55-0.67,1.43-0.25,2.1l16.57,26.42c0.42,0.67,1.26,0.96,2,0.69l67.09-27.19c0.48-0.18,0.85-0.56,1.01-1.04
		c0.16-0.48,0.1-1.01-0.17-1.44l-29.96-47.77c-0.27-0.43-0.72-0.72-1.22-0.78c-0.51-0.06-1.01,0.1-1.38,0.46l-0.03,0.03
		L230.58,130.67z"/>
	<path class="st2" d="M240.05,160.95c-1.59,0-3.15-0.79-4.06-2.24L226.14,143c-1.4-2.23-0.72-5.19,1.51-6.59l3.56-2.23l14.93,23.81
		l-3.56,2.23C241.8,160.72,240.92,160.95,240.05,160.95z M230.25,138.35l-0.99,0.62c-0.82,0.51-1.07,1.6-0.55,2.42l9.85,15.71
		c0.25,0.4,0.64,0.67,1.09,0.78c0.46,0.1,0.93,0.03,1.32-0.22l0.99-0.62L230.25,138.35z"/>
	<path class="st2" d="M279.1,184.58c-0.91,0-1.81-0.26-2.6-0.79l-19.72-13.2c-1.87-1.25-3.42-2.85-4.62-4.76l-2.45-3.91l2.56-1.61
		l2.45,3.91c0.97,1.54,2.23,2.84,3.74,3.85l19.72,13.2c0.54,0.36,1.24,0.37,1.79,0.03c0.42-0.27,0.7-0.7,0.76-1.2
		c0.06-0.5-0.11-0.99-0.47-1.35c-6.16-6.23-16.16-17.75-13.91-24.88l2.89,0.91c-1.51,4.76,6.15,14.74,13.17,21.84
		c1,1.01,1.48,2.41,1.32,3.82c-0.16,1.41-0.95,2.66-2.16,3.42C280.82,184.35,279.96,184.58,279.1,184.58z"/>
	<path class="st2" d="M334.77,121.69c-0.02,0-0.03,0-0.05,0l-9.95-0.3c-0.84-0.03-1.49-0.72-1.47-1.56
		c0.03-0.84,0.73-1.49,1.56-1.47l9.95,0.3c0.84,0.03,1.49,0.72,1.47,1.56C336.26,121.05,335.59,121.69,334.77,121.69z"/>
	<path class="st2" d="M323.32,111.14c-0.65,0-1.26-0.43-1.45-1.08c-0.24-0.8,0.22-1.64,1.02-1.88l9.54-2.83
		c0.8-0.24,1.64,0.22,1.88,1.02c0.24,0.8-0.22,1.64-1.02,1.88l-9.54,2.83C323.61,111.12,323.46,111.14,323.32,111.14z"/>
	<path class="st2" d="M319.19,101.9c-0.51,0-1.01-0.26-1.3-0.73c-0.43-0.72-0.2-1.65,0.52-2.08l8.53-5.13
		c0.72-0.43,1.65-0.2,2.08,0.52c0.43,0.72,0.2,1.65-0.52,2.08l-8.53,5.13C319.72,101.83,319.45,101.9,319.19,101.9z"/>
	<path class="st2" d="M312.58,94.81c-0.38,0-0.76-0.14-1.05-0.42c-0.6-0.58-0.62-1.54-0.04-2.14l6.9-7.17
		c0.58-0.6,1.54-0.62,2.14-0.04c0.6,0.58,0.62,1.54,0.04,2.14l-6.9,7.17C313.37,94.65,312.98,94.81,312.58,94.81z"/>
	<path class="st2" d="M305.42,89.73c-0.24,0-0.48-0.06-0.71-0.18c-0.74-0.39-1.02-1.31-0.63-2.05l4.67-8.79
		c0.39-0.74,1.31-1.02,2.05-0.63c0.74,0.39,1.02,1.31,0.63,2.05l-4.67,8.79C306.49,89.44,305.96,89.73,305.42,89.73z"/>
	<path class="st2" d="M307.29,131.74c-0.3,0-0.58-0.18-0.7-0.47c-0.16-0.39,0.03-0.83,0.41-0.99l4.15-1.7
		c0.39-0.16,0.83,0.03,0.99,0.41c0.16,0.39-0.03,0.83-0.41,0.99l-4.15,1.7C307.48,131.72,307.38,131.74,307.29,131.74z"/>
	<path class="st2" d="M275.56,144.71c-0.3,0-0.58-0.18-0.7-0.47c-0.16-0.39,0.03-0.83,0.41-0.99l27.62-11.29
		c0.39-0.16,0.83,0.03,0.99,0.41c0.16,0.39-0.03,0.83-0.41,0.99l-27.62,11.29C275.75,144.69,275.65,144.71,275.56,144.71z"/>
	<path class="st2" d="M272.05,146.14c-0.3,0-0.58-0.18-0.7-0.47c-0.16-0.39,0.03-0.83,0.41-0.99l2.11-0.86
		c0.39-0.16,0.83,0.03,0.99,0.41c0.16,0.39-0.03,0.83-0.41,0.99l-2.11,0.86C272.24,146.12,272.15,146.14,272.05,146.14z"/>
</g>
<path class="st3" d="M950.08,430.5c-5.48,0-9.94-4.46-9.94-9.94c0-5.48,4.46-9.94,9.94-9.94c5.48,0,9.94,4.46,9.94,9.94
	C960.02,426.04,955.56,430.5,950.08,430.5z M950.08,415.77c-2.64,0-4.79,2.15-4.79,4.79s2.15,4.79,4.79,4.79s4.79-2.15,4.79-4.79
	S952.72,415.77,950.08,415.77z"/>
<path class="st3" d="M871.03,119.26c-0.66,0-1.32-0.25-1.82-0.75c-1.01-1.01-1.01-2.64,0-3.64l8.82-8.82c1.32-1.33,3.64-1.33,4.97,0
	l6.74,6.74l7.82-7.82c1.32-1.32,3.64-1.33,4.97,0l7.82,7.82l8.18-8.18c1.33-1.33,3.64-1.33,4.96,0l7.82,7.82l7.59-7.58
	c1.01-1.01,2.64-1.01,3.64,0c1.01,1.01,1.01,2.64,0,3.64l-8.74,8.74c-1.33,1.33-3.64,1.33-4.97,0l-7.82-7.82l-8.18,8.18
	c-1.32,1.33-3.64,1.33-4.97,0l-7.82-7.82l-7.82,7.82c-1.32,1.32-3.64,1.33-4.97,0l-6.74-6.74l-7.66,7.66
	C872.34,119.01,871.69,119.26,871.03,119.26z M881.67,109.69L881.67,109.69C881.67,109.69,881.67,109.69,881.67,109.69z"/>
<path class="st3" d="M78.8,187.1c-0.66,0-1.32-0.25-1.82-0.75c-1.01-1.01-1.01-2.64,0-3.64l8.82-8.82c1.32-1.33,3.64-1.33,4.97,0
	l6.74,6.74l7.82-7.82c1.32-1.32,3.64-1.33,4.97,0l7.82,7.82l8.18-8.18c1.33-1.33,3.64-1.33,4.96,0l7.82,7.82l7.59-7.58
	c1.01-1.01,2.64-1.01,3.64,0c1.01,1.01,1.01,2.64,0,3.64l-8.74,8.74c-1.33,1.33-3.64,1.33-4.97,0l-7.82-7.82l-8.18,8.18
	c-1.32,1.33-3.64,1.33-4.97,0l-7.82-7.82l-7.82,7.82c-1.32,1.32-3.64,1.33-4.97,0l-6.74-6.74l-7.66,7.66
	C80.11,186.84,79.45,187.1,78.8,187.1z M89.43,177.52L89.43,177.52C89.43,177.52,89.43,177.52,89.43,177.52z"/>
<path class="st1" d="M42.23,482.58c-6.02,0-10.92-4.9-10.92-10.92c0-6.02,4.9-10.92,10.92-10.92c6.02,0,10.92,4.9,10.92,10.92
	C53.15,477.68,48.25,482.58,42.23,482.58z M42.23,466.23c-2.99,0-5.43,2.43-5.43,5.43c0,2.99,2.43,5.43,5.43,5.43
	c2.99,0,5.43-2.44,5.43-5.43C47.66,468.67,45.22,466.23,42.23,466.23z"/>
<g>
	<path class="st3" d="M500.25,175.06c-1.42,0-2.58-1.15-2.58-2.58v-10.75c0-1.42,1.15-2.58,2.58-2.58c1.42,0,2.58,1.15,2.58,2.58
		v10.75C502.82,173.91,501.67,175.06,500.25,175.06z"/>
	<path class="st3" d="M500.25,194.24c-1.42,0-2.58-1.15-2.58-2.58v-10.75c0-1.42,1.15-2.58,2.58-2.58c1.42,0,2.58,1.15,2.58,2.58
		v10.75C502.82,193.08,501.67,194.24,500.25,194.24z"/>
	<path class="st3" d="M515.21,179.27h-10.75c-1.42,0-2.58-1.15-2.58-2.58c0-1.42,1.15-2.58,2.58-2.58h10.75
		c1.42,0,2.58,1.15,2.58,2.58C517.78,178.12,516.63,179.27,515.21,179.27z"/>
	<path class="st3" d="M496.03,179.27h-10.75c-1.42,0-2.58-1.15-2.58-2.58c0-1.42,1.15-2.58,2.58-2.58h10.75
		c1.42,0,2.58,1.15,2.58,2.58C498.61,178.12,497.45,179.27,496.03,179.27z"/>
</g>
<g>
	<path class="st1" d="M806.81,505.28c-1.42,0-2.58-1.15-2.58-2.58v-10.75c0-1.42,1.15-2.58,2.58-2.58c1.42,0,2.58,1.15,2.58,2.58
		v10.75C809.38,504.13,808.23,505.28,806.81,505.28z"/>
	<path class="st1" d="M806.81,524.46c-1.42,0-2.58-1.15-2.58-2.58v-10.75c0-1.42,1.15-2.58,2.58-2.58c1.42,0,2.58,1.15,2.58,2.58
		v10.75C809.38,523.3,808.23,524.46,806.81,524.46z"/>
	<path class="st1" d="M821.77,509.5h-10.75c-1.42,0-2.58-1.15-2.58-2.58c0-1.42,1.15-2.58,2.58-2.58h10.75
		c1.42,0,2.58,1.15,2.58,2.58C824.34,508.34,823.19,509.5,821.77,509.5z"/>
	<path class="st1" d="M802.59,509.5h-10.75c-1.42,0-2.58-1.15-2.58-2.58c0-1.42,1.15-2.58,2.58-2.58h10.75
		c1.42,0,2.58,1.15,2.58,2.58C805.17,508.34,804.02,509.5,802.59,509.5z"/>
</g>
<g>
	<path class="st1" d="M47.66,142.13c-1.42,0-2.58-1.15-2.58-2.58V128.8c0-1.42,1.15-2.58,2.58-2.58c1.42,0,2.58,1.15,2.58,2.58
		v10.75C50.24,140.97,49.08,142.13,47.66,142.13z"/>
	<path class="st1" d="M47.66,161.3c-1.42,0-2.58-1.15-2.58-2.58v-10.75c0-1.42,1.15-2.58,2.58-2.58c1.42,0,2.58,1.15,2.58,2.58
		v10.75C50.24,160.15,49.08,161.3,47.66,161.3z"/>
	<path class="st1" d="M62.62,146.34H51.87c-1.42,0-2.58-1.15-2.58-2.58c0-1.42,1.15-2.58,2.58-2.58h10.75
		c1.42,0,2.58,1.15,2.58,2.58C65.2,145.19,64.04,146.34,62.62,146.34z"/>
	<path class="st1" d="M43.44,146.34H32.7c-1.42,0-2.58-1.15-2.58-2.58c0-1.42,1.15-2.58,2.58-2.58h10.75c1.42,0,2.58,1.15,2.58,2.58
		C46.02,145.19,44.87,146.34,43.44,146.34z"/>
</g>
<path class="st1" d="M544.15,490.39H524.8c-1.78,0-3.37-0.92-4.26-2.46c-0.89-1.54-0.89-3.38,0-4.92l9.68-16.76
	c0.89-1.54,2.48-2.46,4.26-2.46c1.78,0,3.37,0.92,4.26,2.46l9.67,16.76c0.89,1.54,0.89,3.38,0,4.92
	C547.52,489.47,545.93,490.39,544.15,490.39z M525.79,484.89h17.37l-8.68-15.04L525.79,484.89z M532.6,467.62h0.01H532.6z"/>
</svg>
